<?xml version="1.0" encoding="utf-8"?>

<!-- Uploaded to: SVG Repo, www.svgrepo.com, Generator: SVG Repo Mixer Tools -->
<svg fill="#ffff" xmlns="http://www.w3.org/2000/svg" 
	 width="800px" height="800px" viewBox="0 0 100 100" enable-background="new 0 0 100 100" xml:space="preserve">
<g>
	<path d="M 69.1 28.9 L 55.9 15.7 c -0.3 -0.3 -0.6 -0.4 -1 -0.4 c -0.8 0 -1.4 0.6 -1.4 1.4 v 10.6 c 0 2.2 1.8 4 4 4 h 10.6 c 0.8 0 1.4 -0.6 1.4 -1.4 C 69.5 29.5 69.4 29.2 69.1 28.9 z M 69.5 39.3 c 0 -1.1 -0.9 -2 -2 -2 h -14 c -3.3 0 -6 -2.7 -6 -6 v -14 c 0 -1.1 -0.9 -2 -2 -2 h -20 c -3.3 0 -6 2.7 -6 6 v 48 c 0 3.3 2.7 6 6 6 c 0 0 18.7 0 20.3 0 s 2 -1.1 1.9 -2.8 s -0.7 -9 4.3 -14.8 s 13.2 -6.2 14.4 -6.2 c 1.2 0 3.2 -0.1 3.1 -1.8 S 69.5 39.3 69.5 39.3 z M 26.5 27.9 l 4.9 -0.7 c 0.1 0 0.3 -0.1 0.3 -0.2 l 2.2 -4.5 c 0.2 -0.3 0.6 -0.3 0.8 0 l 2.2 4.5 c 0.1 0.1 0.2 0.2 0.3 0.2 l 4.9 0.7 c 0.3 0.1 0.5 0.5 0.2 0.7 l -3.6 3.5 c -0.1 0.1 -0.1 0.2 -0.1 0.4 l 0.8 4.9 c 0.1 0.3 -0.3 0.6 -0.6 0.4 l -4.4 -2.3 c -0.1 -0.1 -0.3 -0.1 -0.4 0 l -4.4 2.3 c -0.3 0.2 -0.7 -0.1 -0.6 -0.4 l 0.8 -4.9 c 0 -0.1 0 -0.3 -0.1 -0.4 l -3.6 -3.5 C 26 28.4 26.2 28 26.5 27.9 z M 44.5 61.3 c 0 1.1 -0.9 2 -2 2 h -13 c -1.1 0 -2 -0.9 -2 -2 v -2 c 0 -1.1 0.9 -2 2 -2 h 13 c 1.1 0 2 0.9 2 2 V 61.3 z M 55.5 49.3 c 0 1.1 -0.9 2 -2 2 h -24 c -1.1 0 -2 -0.9 -2 -2 v -2 c 0 -1.1 0.9 -2 2 -2 h 24 c 1.1 0 2 0.9 2 2 V 49.3 z"/>
	<path d="M 66.3 56.2 c -7.9 0 -14.3 6.4 -14.3 14.3 s 6.4 14.3 14.3 14.3 s 14.3 -6.4 14.3 -14.3 S 74.1 56.2 66.3 56.2 z M 68.8 71.8 c -0.4 0 -0.8 -0.1 -1.2 -0.2 L 62.1 77 c -0.4 0.4 -0.8 0.5 -1.2 0.5 c -0.5 0 -0.8 -0.1 -1.2 -0.5 c -0.6 -0.6 -0.6 -1.7 0 -2.4 l 5.5 -5.5 C 65.1 68.8 65 68.4 65 68 c -0.2 -2.5 1.8 -4.8 4.3 -4.8 c 0.4 0 0.8 0.1 1.2 0.2 c 0.2 0 0.2 0.2 0.1 0.4 l -2.4 2.5 c -0.2 0.1 -0.2 0.5 0 0.6 l 1.7 1.7 c 0.2 0.2 0.5 0.2 0.7 0 l 2.4 -2.4 c 0.1 -0.1 0.4 -0.1 0.4 0.1 c 0.1 0.4 0.2 0.8 0.2 1.2 C 73.5 70 71.4 72 68.8 71.8 z"/>
</g>
</svg>